<?xml version="1.0" encoding="utf-8"?>
<!-- Generator: Adobe Illustrator 19.0.0, SVG Export Plug-In . SVG Version: 6.00 Build 0)  -->
<svg version="1.1" id="design" xmlns="http://www.w3.org/2000/svg" xmlns:xlink="http://www.w3.org/1999/xlink" x="0px" y="0px"
	 viewBox="354.5 256.5 250 50" style="enable-background:new 354.5 256.5 250 50;" xml:space="preserve">
<style type="text/css">
	.st0{fill:#3097CF;}
</style>
<g id="design_2_">
	<g id="XMLID_311_">
		<path id="XMLID_334_" class="st0" d="M374.4,304.8c0,0.1-0.2,0.2-0.6,0.3c-1,0.2-2.8,0.4-5.3,0.4c-3.4,0-6-0.4-7.7-1.3
			c-2.2-1.1-3.3-3-3.3-5.8c0-1,0.6-2.7,1.6-5.3c1-2.6,1.6-4.3,1.6-5.2c0-1.1-0.6-2-1.7-2.7c-1-0.6-2.2-1-3.6-1
			c-0.6,0-0.8-0.2-0.8-0.5c0-0.2,0.1-0.5,0.2-1c0.1-0.5,0.2-0.8,0.2-1s-0.1-0.6-0.2-1c-0.1-0.5-0.2-0.8-0.2-1c0-0.4,0.3-0.5,0.8-0.5
			c1.4,0,2.6-0.3,3.7-1c1.2-0.7,1.8-1.7,1.8-2.8c0-0.8-0.6-2.6-1.7-5.1c-1.1-2.6-1.7-4.3-1.7-5.2c0-2.8,1.1-4.8,3.3-5.8
			c1.7-0.9,4.2-1.3,7.7-1.3c2.6,0,4.4,0.1,5.3,0.4c0.3,0.1,0.6,0.2,0.6,0.3c0,0.3-0.1,0.7-0.1,1.3c-0.1,0.6-0.1,1-0.1,1.3
			c0,0.3,0,0.7,0,1.2c0,0.5,0,1,0,1.2c0,0.4-0.2,0.6-0.7,0.6c-0.6,0-1.3-0.1-2.4-0.2s-1.9-0.2-2.5-0.2c-1.4,0-2.1,0.9-2.1,2.6
			c0,0.8,0.3,2.2,1.1,4.2c0.8,2,1.1,3.4,1.1,4.3c0,1.3-0.3,2.7-1,4.1c-0.9,1.8-2,2.7-3.4,2.7c1.4,0,2.5,0.7,3.5,1.9
			c0.9,1.1,1.3,2.3,1.3,3.5c0,1.1-0.4,2.8-1.3,5.1c-0.8,2.3-1.3,4-1.3,4.9c0,1.8,0.8,2.7,2.3,2.7c0.6,0,1.4-0.1,2.5-0.3
			s1.9-0.3,2.4-0.3c0.3,0,0.5,0.2,0.5,0.6c0,0.3,0,0.7-0.1,1.2c-0.1,0.5-0.1,1-0.1,1.2s0.1,0.7,0.2,1.3
			C374.3,304.1,374.4,304.5,374.4,304.8z"/>
		<path id="XMLID_331_" class="st0" d="M441.4,258.5c0-0.4-0.1,0.2-0.2,1.7c-0.2,1.9-0.4,4.3-0.5,7.2c-0.1,3.3-0.2,7.1-0.2,11.4
			c0,7.1,0.2,12.1,0.7,15c0.1,0.3,0.1,0.5,0.1,0.6c0,0.2-0.1,0.3-0.4,0.4c-0.7,0.1-3.3,0.1-7.9,0.1c-1.1,0-1.7-0.2-1.9-0.5
			c-0.1-0.7-0.1-1.3-0.1-2c0-0.1-0.1-0.3-0.2-0.4c-0.1,0.1-0.3,0.2-0.4,0.3c-2.2,1.8-4.9,2.7-8.1,2.7c-4.2,0-7.6-1.2-10.1-3.8
			c-2.4-2.4-3.6-5.5-3.6-9.1c0-3.7,1.2-6.8,3.5-9.2c2.5-2.6,5.9-3.9,10.1-3.9c3,0,5.3,0.8,7,2.4c0.3,0.3,0.5,0.4,0.6,0.4
			c0.2,0,0.3-0.2,0.3-0.7c0-1.3-0.1-3.3-0.1-5.9s-0.1-4.6-0.1-5.9c0-0.5,0.1-0.8,0.5-0.8c1.2-0.1,3.1-0.2,5.3-0.3
			c4-0.4,5.8-0.7,5.3-0.7C441.2,257.9,441.4,258.1,441.4,258.5z M430.2,282c0-1.4-0.6-2.6-1.7-3.6c-1.1-1-2.4-1.5-4-1.5
			c-1.7,0-2.9,0.5-3.9,1.5c-1,1-1.5,2.3-1.5,3.6c0,1.4,0.5,2.6,1.5,3.5c1,1,2.3,1.5,3.9,1.5c1.6,0,2.9-0.5,4-1.5
			C429.6,284.6,430.2,283.4,430.2,282z"/>
		<path id="XMLID_328_" class="st0" d="M473.3,280.9c0,1.7-0.6,2.7-1.9,3c-0.2,0.1-2.3,0.2-6.2,0.5c-2.4,0.2-5.8,0.5-10.6,0.8
			c0.3,1.1,1.1,2,2.6,2.6c1.2,0.5,2.5,0.7,4,0.7c1.8,0,3.5-0.4,5.3-1.2c0.8-0.4,1.5-0.8,2.3-1.2c0.4,0.2,1.1,1.1,2.1,2.6
			s1.5,2.6,1.5,3c0,0.1-0.1,0.3-0.4,0.6c-2.4,2.3-6.2,3.3-11.3,3.3c-4.7,0-8.6-1.2-11.5-3.6c-3-2.4-4.5-5.6-4.5-9.6
			c0-3.9,1.3-7.1,4-9.6c2.8-2.6,6.4-3.9,11-3.9c3.8,0,7.1,1.2,9.7,3.6C471.9,274.8,473.3,277.6,473.3,280.9z M462.8,279.4
			c0-1.1-0.4-2-1.3-2.8s-1.9-1.2-3.1-1.2c-1.2,0-2.3,0.5-3.1,1.4c-0.8,0.8-1.1,1.8-1.1,3c0,0.5,0.3,0.7,0.8,0.7
			c1.5,0,3.8-0.2,6.9-0.6C462.5,279.7,462.8,279.5,462.8,279.4z"/>
		<path id="XMLID_326_" class="st0" d="M494.1,274.1c0,0.2-0.1,0.4-0.4,0.7c-0.6-0.1-1.1-0.2-1.7-0.2c-1.2,0-2.2,0.2-3,0.7
			c-1,0.5-1.5,1.2-1.5,2.2c0,0.6,0.5,1.4,1.5,2.3c1.5,1.4,2.5,2.3,2.8,2.8c1,1.3,1.5,2.7,1.5,4.2c0,0.9-0.2,1.8-0.6,2.8
			c-0.5,1.1-1,1.8-1.7,2.4c-1.5,1.1-3.2,2-5.2,2.8c-2.2,0.8-4.1,1.2-5.9,1.2c-0.4,0-1.3-1-2.7-2.8s-2.1-3-2.1-3.4
			c0-0.2,0.1-0.2,0.3-0.3c1.4-0.2,2.8-0.4,4.2-0.7c1.7-0.5,2.6-1.2,2.6-2.4c0-0.8-0.5-1.6-1.5-2.6c-1.8-1.7-2.8-2.6-2.8-2.7
			c-1-1.2-1.5-2.5-1.5-3.9c0-2.6,1.5-4.8,4.5-6.5c2.7-1.6,5.6-2.4,8.7-2.4c0.3,0,1.1,0.9,2.4,2.7
			C493.5,272.7,494.1,273.8,494.1,274.1z"/>
		<path id="XMLID_323_" class="st0" d="M509.5,283.1c0,1.2,0,3.1,0.1,5.6s0.1,4.3,0.1,5.5c0,0.4-0.3,0.6-0.8,0.7
			c-0.7,0.1-2.2,0.2-4.6,0.2c-2.4,0-4-0.1-4.6-0.2c-0.4-0.1-0.7-0.2-0.8-0.4c-0.1-0.1-0.1-0.3-0.1-0.8c0-1.2,0-3,0.1-5.3
			c0.1-2.4,0.1-4.2,0.1-5.3c0-4.9-0.2-8.7-0.6-11.6c-0.1-0.3-0.1-0.5-0.1-0.5c0-0.4,0.3-0.5,0.8-0.5c0.6,0,1.4,0.1,2.6,0.2
			c1.2,0.1,2,0.2,2.6,0.2s1.5-0.1,2.6-0.1c1.2-0.1,2-0.1,2.6-0.1c0.5,0,0.7,0.2,0.7,0.5c0,0.1,0,0.2-0.1,0.5
			C509.7,274.8,509.5,278.7,509.5,283.1z M510.3,264.1c0,3-1.9,4.5-5.8,4.5c-1.7,0-3.1-0.4-4.2-1.1c-1.2-0.8-1.8-1.9-1.8-3.3
			c0-1.3,0.6-2.4,1.9-3.3c1.1-0.8,2.5-1.2,4.1-1.2c1.5,0,2.9,0.4,4,1.2C509.6,261.7,510.3,262.7,510.3,264.1z"/>
		<path id="XMLID_320_" class="st0" d="M545.1,288.2c0,4.9-1.2,8.4-3.6,10.5c-2.5,2.1-6.6,3.3-12.3,3.3c-1.7,0-4-0.2-6.9-0.7
			c-3.7-0.6-5.6-1.2-5.6-2c0-0.3,0.4-2,1.3-5c0.1-0.5,0.3-0.7,0.6-0.7c0.1,0,0.2,0.1,0.3,0.1c3.1,1.3,5.9,2,8.5,2
			c1.5,0,2.8-0.3,4.3-1c1.7-0.7,2.6-1.7,2.6-2.8v-1.7c-2,1.7-4.7,2.4-7.8,2.4c-3.8,0-6.8-1.1-9.2-3.4c-2.4-2.2-3.5-4.9-3.5-8.2
			s1.1-5.9,3.3-8.1c2.4-2.3,5.4-3.3,9.2-3.3c3,0,5.3,1,6.9,2.8c0.3,0.4,0.6,0.5,0.6,0.5c0.2,0,0.3-0.3,0.3-1c0-1.4,0.2-2,0.6-2
			s2,0.1,5.2,0.4c3.1,0.3,4.7,0.4,4.9,0.5c0.3,0.1,0.5,0.3,0.5,0.7c0,1.2-0.1,2.9-0.1,5.3c-0.1,2.3-0.1,4.1-0.1,5.3
			c0,0.7,0,1.7,0,3.1C545.1,286.4,545.1,287.4,545.1,288.2z M534.7,281.1c0-1.2-0.5-2.3-1.5-3.2s-2.2-1.4-3.6-1.4
			c-1.5,0-2.6,0.5-3.6,1.4c-1,1-1.5,2-1.5,3.3s0.5,2.3,1.5,3.2c1,0.9,2.2,1.4,3.6,1.4c1.5,0,2.6-0.5,3.6-1.4
			C534.2,283.4,534.7,282.3,534.7,281.1z"/>
		<path id="XMLID_315_" class="st0" d="M579.9,294c0,0.5-0.3,0.7-0.8,0.8c-0.6,0.1-2,0.1-4.4,0.1c-2.5,0-4.1-0.1-4.7-0.2
			c-0.6-0.1-0.9-0.5-0.9-1.1c0-0.8,0-2,0.1-3.6c0.1-1.6,0.1-2.9,0.1-3.7c0-0.7,0-1.5-0.1-2.9c-0.1-1.3-0.1-2.2-0.1-2.9
			c0-2.3-1.2-3.5-3.5-3.5c-0.8,0-1.7,0.3-2.7,0.9c-1.1,0.7-1.7,1.3-1.7,1.9v14c0,0.5-0.3,0.9-0.9,1c-0.7,0.1-2.2,0.1-4.3,0.1
			c-2.4,0-3.8-0.1-4.5-0.2c-0.6-0.1-0.9-0.4-0.9-0.8c0-1.3,0-3.3,0-6s0-4.7,0-6.1c0-4.3-0.4-7.6-1.2-10c-0.1-0.2-0.1-0.3-0.1-0.4
			c0-0.3,0.1-0.5,0.4-0.5c1.3-0.1,2.9-0.3,5-0.5c3.2-0.5,4.9-0.8,5.3-0.8c0.2,0,0.4,0.6,0.5,1.7c0.1,1.1,0.3,1.7,0.5,1.7
			c-0.2,0,0.8-0.6,3.2-1.8c2.4-1.2,4.4-1.8,6.2-1.8c2.5,0,4.7,0.5,6.3,1.5c1.9,1.2,2.8,2.8,2.8,4.9v8.1c0,1.1,0,2.8,0,5
			C579.9,291.3,579.9,293,579.9,294z"/>
		<path id="XMLID_312_" class="st0" d="M604.5,283.7c0,0.4-0.3,0.5-0.8,0.5c-1.4,0-2.6,0.3-3.6,1c-1.2,0.7-1.7,1.6-1.7,2.7
			c0,0.9,0.6,2.6,1.6,5.2c1,2.6,1.6,4.3,1.6,5.3c0,2.8-1.1,4.8-3.3,5.8c-1.7,0.9-4.3,1.3-7.8,1.3c-2.6,0-4.4-0.1-5.3-0.4
			c-0.3-0.1-0.6-0.2-0.6-0.3c0-0.3,0.1-0.7,0.2-1.2c0.1-0.5,0.2-1,0.2-1.3s0-0.7-0.1-1.2c-0.1-0.5-0.1-1-0.1-1.2
			c0-0.4,0.1-0.6,0.5-0.6c0.5,0,1.3,0.1,2.4,0.3c1.1,0.2,1.9,0.3,2.5,0.3c1.5,0,2.3-0.9,2.3-2.7c0-1-0.4-2.6-1.3-4.9
			c-0.9-2.3-1.3-4-1.3-5.1c0-1.2,0.4-2.4,1.3-3.5c1-1.2,2.2-1.9,3.5-1.9c-1.4,0-2.5-0.9-3.4-2.7c-0.7-1.4-1-2.8-1-4.1
			c0-1,0.3-2.4,1.1-4.3c0.8-1.9,1.1-3.3,1.1-4.2c0-1.7-0.7-2.6-2.2-2.6c-0.6,0-1.3,0.1-2.4,0.2c-1.1,0.1-1.9,0.2-2.5,0.2
			c-0.4,0-0.6-0.2-0.6-0.6c0-0.2,0-0.7,0-1.2c0-0.5,0-1,0-1.2c0-0.3-0.1-0.7-0.1-1.3c-0.1-0.6-0.1-1-0.1-1.3c0-0.1,0.2-0.2,0.6-0.3
			c1-0.2,2.8-0.4,5.3-0.4c3.5,0,6,0.4,7.8,1.3c2.2,1.1,3.3,3,3.3,5.8c0,1-0.6,2.7-1.7,5.2c-1.1,2.6-1.7,4.3-1.7,5.1
			c0,1.1,0.6,2,1.8,2.8c1.1,0.7,2.3,1,3.7,1c0.5,0,0.8,0.2,0.8,0.5c0,0.2-0.1,0.5-0.2,1c-0.1,0.5-0.2,0.8-0.2,1s0.1,0.6,0.2,1
			C604.4,283.1,604.5,283.5,604.5,283.7z"/>
	</g>
	<g id="XMLID_307_">
		<path id="XMLID_310_" class="st0" d="M378.5,296.4c0,0,13.8-24.8,15.1-24.8c1.3,0,5,1.1,6.3,2.1c1.3,1.1-16.4,24.8-16.4,24.8
			S374.6,306.1,378.5,296.4z"/>
		<path id="XMLID_309_" class="st0" d="M403.1,270l-0.9,1.7c-0.2,0.4-0.7,0.5-1.1,0.4l-5.3-2.1c-0.4-0.2-0.6-0.6-0.4-1l0.9-1.7
			c0.2-0.4,0.7-0.5,1.1-0.4l5.3,2.1C403.1,269.2,403.3,269.6,403.1,270z"/>
		<path id="XMLID_308_" class="st0" d="M408.7,255.5c0,0,1.2,5.4-1.3,8.6c-2.5,3.2-3.8,3.2-3.8,3.2l-3.8-1.1c0,0-1.3-1.1,0-4.3
			C401.3,258.3,406.2,255.5,408.7,255.5z"/>
	</g>
</g>
</svg>
