<?xml version="1.0" encoding="utf-8"?>
<!-- Generator: Adobe Illustrator 19.0.0, SVG Export Plug-In . SVG Version: 6.00 Build 0)  -->
<svg version="1.1" id="developer" xmlns="http://www.w3.org/2000/svg" xmlns:xlink="http://www.w3.org/1999/xlink" x="0px" y="0px"
	 viewBox="339 246 250 50" style="enable-background:new 339 246 250 50;" xml:space="preserve">
<style type="text/css">
	.st0{fill:#3097CF;}
</style>
<g id="developer_1_">
	<path id="XMLID_305_" class="st0" d="M401.6,292.8c-2.8-2.1-6.1-4.6-9.6-7.4c-2.6-2-5.3-3.3-8.1-4.1c-0.7-0.2-1-0.5-1-1.2
		c0-0.5,0-1,0.2-1.8c0-0.8,0.2-1.5,0.2-1.8c0-0.3,0-1-0.2-1.7c0-0.8-0.2-1.3-0.2-1.7c0-0.5,0.3-1,1-1.2c2-0.7,4.6-2.1,8.3-4.3
		c1.3-0.8,2.6-1.8,4.5-3.1c2.6-2,4.1-3.1,4.3-3.3c0.2-0.2,0.5-0.3,0.8-0.5c0.5,0.2,1.2,1.3,2.1,3.1c0.8,1.8,1.3,3.1,1.3,3.8
		c0,0.2-0.2,0.5-0.5,0.8c-3,3.6-6.9,6.1-11.7,7.4c-0.2,0-0.5,0.2-0.7,0.3c0.2,0.2,0.3,0.3,0.5,0.5c5.9,2.5,9.9,5,11.9,7.8
		c0.3,0.5,0.5,0.8,0.5,1c0,0.7-0.5,2-1.5,4.1C403,291.6,402.1,292.8,401.6,292.8z"/>
	<path id="XMLID_303_" class="st0" d="M414.5,298.9c-0.2,0-0.3,0-0.5-0.2c-1.7-0.7-3.6-1.3-5.9-2.3c-0.2-0.2-0.2-0.3-0.2-0.5
		c0-0.2,0-0.5,0.2-0.7c3-10.1,5.1-17.7,6.4-22.9l4-15.3c0.3-1.5,0.8-3.5,1.5-6.3c0.2-0.5,0.3-0.7,0.7-0.7c0.7,0,1.8,0.3,3.6,1
		c2,0.8,3,1.5,3,1.8c0,0.2-1,3.6-2.8,10.6c-2.1,7.4-3.3,11.6-3.3,12c-0.8,3.1-2,8.1-3.8,15c-0.3,1.8-1,4.3-2,7.6
		C415,298.7,414.8,298.9,414.5,298.9z"/>
	<path id="XMLID_272_" class="st0" d="M464.3,250c0-0.5-0.2,0.2-0.3,2.1c-0.2,2.3-0.3,5.3-0.5,8.9c-0.2,4.1-0.3,8.7-0.3,14
		c0,8.7,0.2,14.9,0.7,18.5c0,0.3,0,0.7,0,0.8s-0.2,0.3-0.5,0.3c-0.8,0.2-3.5,0.2-8.4,0.2c-1.2,0-1.8-0.2-2-0.7
		c0-0.8-0.2-1.7-0.2-2.5c0-0.2-0.2-0.3-0.3-0.5c-0.2,0-0.3,0.2-0.5,0.3c-2.3,2.1-5.1,3.3-8.6,3.3c-4.5,0-7.9-1.5-10.7-4.6
		c-2.5-3-3.8-6.8-3.8-11.2c0-4.6,1.3-8.4,3.8-11.4c2.6-3.1,6.3-4.8,10.7-4.8c3.1,0,5.6,1,7.4,3c0.3,0.3,0.5,0.5,0.7,0.5
		s0.3-0.3,0.3-0.8c0-1.7,0-4-0.2-7.3c-0.2-3.3-0.2-5.6-0.2-7.3c0-0.7,0.2-1,0.5-1c1.3,0,3.1-0.2,5.6-0.3c4.1-0.5,6.1-0.8,5.6-0.8
		C464.2,249.2,464.3,249.4,464.3,250z M452.5,278.9c0-1.7-0.7-3.1-1.8-4.3c-1.2-1.3-2.5-1.8-4.1-1.8c-1.7,0-3.1,0.7-4.1,1.8
		c-1,1.3-1.5,2.8-1.5,4.5c0,1.7,0.5,3.1,1.5,4.3c1,1.3,2.5,1.8,4.1,1.8c1.7,0,3.1-0.7,4.3-1.8C452,282,452.5,280.6,452.5,278.9z"/>
	<path id="XMLID_268_" class="st0" d="M497.8,277.6c0,2.1-0.7,3.3-2,3.6c-0.2,0-2.5,0.3-6.6,0.7c-2.5,0.3-6.1,0.7-11.1,1
		c0.3,1.3,1.2,2.5,2.6,3.1c1.2,0.7,2.6,0.8,4.1,0.8c1.8,0,3.8-0.5,5.6-1.5c0.8-0.5,1.7-1,2.5-1.5c0.5,0.2,1.2,1.3,2.1,3.1
		c1,2,1.5,3.1,1.5,3.6c0,0.2-0.2,0.3-0.5,0.7c-2.6,2.8-6.6,4.1-11.9,4.1c-5,0-9.1-1.5-12-4.5c-3.1-3-4.8-6.9-4.8-11.9
		c0-4.8,1.5-8.7,4.3-11.9c3-3.1,6.8-4.8,11.6-4.8c4,0,7.4,1.5,10.2,4.5C496.5,270,497.8,273.5,497.8,277.6z M486.8,275.6
		c0-1.3-0.5-2.5-1.3-3.5c-1-1-2-1.5-3.3-1.5c-1.3,0-2.5,0.5-3.3,1.7c-0.8,1-1.2,2.3-1.2,3.6c0,0.5,0.3,0.8,0.8,0.8
		c1.5,0,4-0.2,7.3-0.7C486.5,276.1,486.8,275.9,486.8,275.6z"/>
	<path id="XMLID_266_" class="st0" d="M531.7,272.8c0,3.6-0.2,5.8-0.3,6.4c-0.5,1.5-2,4-4.3,7.6c-2.1,3.1-4,5.4-5.4,7.3
		c-0.5,0.7-2.1,1-5,1c-2.5,0-4-0.2-4.6-0.3c-0.5-0.2-0.8-0.3-1.2-0.7c-1.3-1.3-3.1-3.8-5.4-7.1c-2.5-3.6-4-6.1-4.5-7.4
		c-0.5-1.5-0.8-3.6-0.8-6.6c0-0.8,0-2,0-3.6c0-1.7,0-3,0-3.8c0-0.5,0.3-0.8,1.2-0.8c1,0,2.6,0,4.8,0.2c2.1,0,3.8,0.2,4.8,0.2
		c0.5,0,0.7,0.3,0.7,1s0,1.5-0.2,2.6c-0.2,1.2-0.2,2.1-0.2,2.6c0,2.1,0,4,0.2,5.3c0,0.7,0.7,2,1.8,4c1.2,2.1,2.1,3.1,2.6,3.1
		c0.5,0,1.3-1,2.5-3.1c1.2-2,1.7-3.1,1.8-4c0.2-1.5,0.3-3.3,0.3-5.4c0-0.7,0-1.5-0.2-2.8s-0.2-2.1-0.2-2.8c0-0.7,0.2-1,0.7-1
		c0.5,0,1.3,0,2.3,0c1,0,1.8,0,2.3,0c0.5,0,1.3,0,2.3-0.2c1-0.2,1.8-0.2,2.3-0.2c0.5,0,0.8,0.3,1,0.8
		C531.5,266.7,531.7,269.2,531.7,272.8z"/>
	<path id="XMLID_264_" class="st0" d="M557.1,280.1c0,0.5-0.3,1-1,1.2c-2,0.7-4.6,2.1-8.3,4.3c-1.2,0.8-2.6,1.8-4.5,3.1
		c-2.6,2.1-4,3.1-4.3,3.3c-0.2,0.2-0.5,0.3-0.8,0.5c-0.5-0.2-1.2-1.2-2-3c-0.8-1.8-1.3-3-1.3-3.5c0-0.2,0.2-0.5,0.5-1
		c3.3-4.1,7.3-6.8,11.6-8.1c0.2,0,0.5-0.2,0.7-0.3c-0.2-0.2-0.3-0.3-0.7-0.5c-5.8-2.3-9.7-5.1-11.7-8.1c-0.3-0.3-0.5-0.7-0.5-1
		c0-0.5,0.5-1.8,1.5-4c1-2.1,1.7-3.1,2.1-3.1c2.8,2.1,6.1,4.6,9.6,7.4c2.6,2,5.3,3.3,8.1,4.1c0.7,0.2,1,0.5,1,1.2c0,0.5,0,1-0.2,1.8
		c0,0.8-0.2,1.5-0.2,1.8s0,1,0.2,1.7C557.1,279.1,557.1,279.7,557.1,280.1z"/>
</g>
</svg>
